<svg width="896" height="748" viewBox="0 0 896 748" fill="none" xmlns="http://www.w3.org/2000/svg">
<path d="M41.634 712.738C54.0624 735.787 80.44 745.681 80.44 745.681C80.44 745.681 86.6671 718.206 74.2387 695.157C61.8103 672.108 35.4327 662.214 35.4327 662.214C35.4327 662.214 29.2056 689.689 41.634 712.738Z" fill="#2F2E41"/>
<path d="M50.1765 705.155C72.6149 718.655 81.2567 745.469 81.2567 745.469C81.2567 745.469 53.5186 750.396 31.0802 736.896C8.64174 723.396 0 696.582 0 696.582C0 696.582 27.7381 691.655 50.1765 705.155Z" fill="#8156D6"/>
<path d="M553.248 35.9078H413.249V37.9078H553.248V35.9078Z" fill="#F2F2F2"/>
<path d="M515.248 37.4078H513.248V55.9078H515.248V37.4078Z" fill="#F2F2F2"/>
<path d="M454.249 37.4078H452.249V55.9078H454.249V37.4078Z" fill="#F2F2F2"/>
<path d="M624.248 131.908H484.249V133.908H624.248V131.908Z" fill="#F2F2F2"/>
<path d="M524.248 113.908H522.248V132.408H524.248V113.908Z" fill="#F2F2F2"/>
<path d="M585.248 113.908H583.248V132.408H585.248V113.908Z" fill="#F2F2F2"/>
<path d="M810.248 176.908H670.248V178.908H810.248V176.908Z" fill="#F2F2F2"/>
<path d="M710.248 158.908H708.248V177.408H710.248V158.908Z" fill="#F2F2F2"/>
<path d="M771.248 158.908H769.248V177.408H771.248V158.908Z" fill="#F2F2F2"/>
<path d="M796.248 640.908H656.248V642.908H796.248V640.908Z" fill="#F2F2F2"/>
<path d="M696.248 622.908H694.248V641.408H696.248V622.908Z" fill="#F2F2F2"/>
<path d="M757.248 622.908H755.248V641.408H757.248V622.908Z" fill="#F2F2F2"/>
<path d="M557.248 319.908H417.249V321.908H557.248V319.908Z" fill="#F2F2F2"/>
<path d="M457.249 301.908H455.249V320.408H457.249V301.908Z" fill="#F2F2F2"/>
<path d="M518.248 301.908H516.248V320.408H518.248V301.908Z" fill="#F2F2F2"/>
<path d="M601.248 560.908H461.249V562.908H601.248V560.908Z" fill="#F2F2F2"/>
<path d="M501.249 542.908H499.249V561.408H501.249V542.908Z" fill="#F2F2F2"/>
<path d="M562.248 542.908H560.248V561.408H562.248V542.908Z" fill="#F2F2F2"/>
<path d="M825.248 487.908H685.248V489.908H825.248V487.908Z" fill="#F2F2F2"/>
<path d="M725.248 469.908H723.248V488.408H725.248V469.908Z" fill="#F2F2F2"/>
<path d="M786.248 469.908H784.248V488.408H786.248V469.908Z" fill="#F2F2F2"/>
<path d="M362.06 702.184H125.274V700.481H360.356V617.861H145.18L134.727 596.084L136.263 595.347L146.252 616.157H362.06V702.184Z" fill="#2F2E41"/>
<path d="M156.789 743.92C166.667 743.92 174.675 735.912 174.675 726.033C174.675 716.154 166.667 708.146 156.789 708.146C146.91 708.146 138.902 716.154 138.902 726.033C138.902 735.912 146.91 743.92 156.789 743.92Z" fill="#3F3D56"/>
<path d="M333.101 743.92C342.979 743.92 350.987 735.912 350.987 726.033C350.987 716.154 342.979 708.146 333.101 708.146C323.222 708.146 315.214 716.154 315.214 726.033C315.214 735.912 323.222 743.92 333.101 743.92Z" fill="#3F3D56"/>
<path d="M540.927 357.226C547.043 357.226 552 352.268 552 346.153C552 340.038 547.043 335.08 540.927 335.08C534.812 335.08 529.854 340.038 529.854 346.153C529.854 352.268 534.812 357.226 540.927 357.226Z" fill="#3F3D56"/>
<path d="M387.385 589.753H121.237L63.6484 401.517H446.693L446.344 402.624L387.385 589.753ZM122.497 588.05H386.136L444.37 403.22H65.9508L122.497 588.05Z" fill="#2F2E41"/>
<path d="M451.465 384.7L449.818 384.263L461.059 341.894H526.448V343.598H462.37L451.465 384.7Z" fill="#2F2E41"/>
<path d="M427.552 458.584H82.2584V460.287H427.552V458.584Z" fill="#2F2E41"/>
<path d="M407.777 521.344H101.459V523.047H407.777V521.344Z" fill="#2F2E41"/>
<path d="M256.017 402.368H254.314V588.901H256.017V402.368Z" fill="#2F2E41"/>
<path d="M332.286 402.315L320.058 588.843L321.758 588.955L333.986 402.426L332.286 402.315Z" fill="#2F2E41"/>
<path d="M178.081 402.313L176.38 402.424L188.538 588.957L190.238 588.846L178.081 402.313Z" fill="#2F2E41"/>
<path d="M896 745H0V747H896V745Z" fill="#2F2E41"/>
<path d="M896 745H0V747H896V745Z" fill="#2F2E41"/>
<path d="M200.248 352.908H60.2485V354.908H200.248V352.908Z" fill="#F2F2F2"/>
<path d="M100.248 334.908H98.2485V353.408H100.248V334.908Z" fill="#F2F2F2"/>
<path d="M161.249 334.908H159.249V353.408H161.249V334.908Z" fill="#F2F2F2"/>
<path d="M249.248 56.9078H109.248V58.9078H249.248V56.9078Z" fill="#F2F2F2"/>
<path d="M211.249 58.4078H209.249V76.9078H211.249V58.4078Z" fill="#F2F2F2"/>
<path d="M150.249 58.4078H148.249V76.9078H150.249V58.4078Z" fill="#F2F2F2"/>
<path d="M390.249 253.908H250.249V255.908H390.249V253.908Z" fill="#F2F2F2"/>
<path d="M352.249 255.408H350.249V273.908H352.249V255.408Z" fill="#F2F2F2"/>
<path d="M291.249 255.408H289.249V273.908H291.249V255.408Z" fill="#F2F2F2"/>
<path d="M152.248 252.908H12.2485V254.908H152.248V252.908Z" fill="#F2F2F2"/>
<path d="M114.248 254.408H112.248V272.908H114.248V254.408Z" fill="#F2F2F2"/>
<path d="M53.2485 254.408H51.2485V272.908H53.2485V254.408Z" fill="#F2F2F2"/>
<path d="M320.249 152.908H180.249V154.908H320.249V152.908Z" fill="#F2F2F2"/>
<path d="M220.249 134.908H218.249V153.408H220.249V134.908Z" fill="#F2F2F2"/>
<path d="M281.249 134.908H279.249V153.408H281.249V134.908Z" fill="#F2F2F2"/>
</svg>
