<svg width="552" height="411" viewBox="0 0 552 411" fill="none" xmlns="http://www.w3.org/2000/svg">
<path d="M41.634 377.658C54.0624 400.707 80.44 410.601 80.44 410.601C80.44 410.601 86.6671 383.126 74.2387 360.077C61.8103 337.028 35.4327 327.133 35.4327 327.133C35.4327 327.133 29.2056 354.609 41.634 377.658Z" fill="#2F2E41"/>
<path d="M50.1765 370.075C72.6149 383.574 81.2567 410.389 81.2567 410.389C81.2567 410.389 53.5186 415.315 31.0802 401.816C8.64174 388.316 0 361.502 0 361.502C0 361.502 27.7381 356.575 50.1765 370.075Z" fill="#8156D6"/>
<path d="M362.06 367.104H125.274V365.401H360.356V282.781H145.18L134.727 261.004L136.263 260.267L146.252 281.077H362.06V367.104Z" fill="#2F2E41"/>
<path d="M156.789 408.839C166.667 408.839 174.675 400.831 174.675 390.953C174.675 381.074 166.667 373.066 156.789 373.066C146.91 373.066 138.902 381.074 138.902 390.953C138.902 400.831 146.91 408.839 156.789 408.839Z" fill="#3F3D56"/>
<path d="M333.101 408.839C342.979 408.839 350.987 400.831 350.987 390.953C350.987 381.074 342.979 373.066 333.101 373.066C323.222 373.066 315.214 381.074 315.214 390.953C315.214 400.831 323.222 408.839 333.101 408.839Z" fill="#3F3D56"/>
<path d="M540.927 22.1455C547.043 22.1455 552 17.1881 552 11.0728C552 4.95745 547.043 0 540.927 0C534.812 0 529.854 4.95745 529.854 11.0728C529.854 17.1881 534.812 22.1455 540.927 22.1455Z" fill="#3F3D56"/>
<path d="M387.385 254.673H121.237L63.6484 66.4365H446.693L446.344 67.544L387.385 254.673ZM122.497 252.969H386.136L444.37 68.1399H65.9508L122.497 252.969Z" fill="#2F2E41"/>
<path d="M451.465 49.6198L449.818 49.1827L461.059 6.81375H526.448V8.51773H462.37L451.465 49.6198Z" fill="#2F2E41"/>
<path d="M427.552 123.504H82.2584V125.207H427.552V123.504Z" fill="#2F2E41"/>
<path d="M407.777 186.263H101.459V187.967H407.777V186.263Z" fill="#2F2E41"/>
<path d="M256.017 67.2882H254.314V253.821H256.017V67.2882Z" fill="#2F2E41"/>
<path d="M332.286 67.2347L320.058 253.763L321.758 253.875L333.986 67.3462L332.286 67.2347Z" fill="#2F2E41"/>
<path d="M178.081 67.2328L176.38 67.3436L188.538 253.877L190.238 253.766L178.081 67.2328Z" fill="#2F2E41"/>
</svg>
