<?xml version="1.0" standalone="no"?>
<!DOCTYPE svg PUBLIC "-//W3C//DTD SVG 20010904//EN"
 "http://www.w3.org/TR/2001/REC-SVG-20010904/DTD/svg10.dtd">
<svg version="1.0" xmlns="http://www.w3.org/2000/svg"
 width="200.000000pt" height="200.000000pt" viewBox="0 0 200.000000 200.000000"
 preserveAspectRatio="xMidYMid meet">
<metadata>
Created by potrace 1.16, written by Peter Selinger 2001-2019
</metadata>
<g transform="translate(0.000000,200.000000) scale(0.100000,-0.100000)"
fill="#000000" stroke="none">
<path d="M833 1859 c-117 -38 -123 -41 -123 -67 -1 -35 -32 -72 -60 -72 -21 0
-22 -3 -15 -47 9 -62 26 -97 49 -101 20 -4 20 -5 0 71 -5 22 -5 22 103 19 88
-2 116 -6 149 -24 l42 -21 48 20 c37 16 76 22 160 25 l112 3 -5 -32 c-5 -28
-3 -33 15 -33 22 0 32 24 32 84 0 38 0 38 -32 32 -18 -3 -59 -9 -90 -12 -49
-6 -58 -4 -58 9 0 8 -2 22 -5 30 -4 10 9 18 47 28 34 9 54 20 56 31 3 14 -22
25 -125 57 -71 23 -140 41 -153 40 -14 0 -80 -18 -147 -40z m214 -100 c35 -6
63 -15 63 -19 0 -5 3 -15 6 -24 5 -12 0 -16 -22 -16 -16 0 -47 -7 -71 -16 -39
-15 -45 -15 -77 0 -19 9 -50 16 -69 16 -31 0 -34 2 -30 24 4 21 13 26 57 34
71 13 72 13 143 1z"/>
<path d="M778 1611 c-77 -25 -126 -102 -115 -181 14 -106 138 -173 231 -125
24 13 31 13 37 3 6 -9 1 -16 -14 -22 -80 -31 -102 -44 -142 -87 -25 -27 -45
-53 -45 -59 0 -5 -4 -10 -10 -10 -12 0 -23 60 -24 129 -1 62 -20 79 -37 34
-26 -67 14 -210 79 -284 22 -25 28 -39 21 -50 -6 -9 -9 -10 -9 -1 0 6 -9 12
-20 12 -23 0 -25 -13 -9 -58 9 -27 15 -31 49 -30 27 0 40 5 43 17 4 14 5 14 6
-1 1 -25 41 -24 41 1 0 18 3 18 47 5 59 -18 127 -18 186 0 46 14 47 14 47 -9
0 -21 4 -23 42 -22 37 2 42 5 50 32 5 17 6 39 4 49 -3 12 7 33 26 55 62 70 94
185 79 280 -7 45 -5 62 10 95 24 53 24 90 -2 142 -60 124 -246 117 -294 -10
-46 -119 41 -237 165 -223 25 2 53 8 63 12 15 6 17 0 17 -62 0 -38 -2 -72 -5
-75 -3 -2 -29 19 -58 47 -36 35 -71 58 -105 69 -36 12 -52 23 -52 35 0 20 -50
71 -70 71 -7 0 -22 -8 -32 -17 -18 -16 -18 -15 -3 20 20 49 19 83 -6 133 -33
69 -120 107 -191 85z m492 -60 c14 -9 33 -34 44 -55 18 -38 18 -39 0 -84 -33
-79 -119 -103 -184 -52 l-25 20 39 -16 c23 -9 50 -13 65 -9 64 16 96 86 67
143 -20 39 -44 52 -94 52 -46 0 -84 -32 -64 -52 10 -10 17 -10 32 0 26 16 31
15 24 -2 -3 -8 4 -24 17 -37 18 -18 25 -20 40 -11 15 10 17 9 12 -6 -22 -63
-102 -54 -115 13 -6 32 -36 31 -41 -2 -4 -28 -4 -28 -6 -2 -3 59 84 136 139
124 14 -3 36 -14 50 -24z m-125 -319 c17 -8 53 -39 82 -68 l51 -53 -29 -45
c-57 -85 -183 -145 -282 -132 -65 9 -131 41 -178 86 -45 43 -46 51 -16 105 27
48 94 100 149 117 38 11 42 11 56 -10 19 -29 38 -28 58 3 14 22 22 25 48 19
17 -3 45 -13 61 -22z"/>
<path d="M430 590 l0 -170 25 0 c24 0 25 2 25 75 l0 75 100 0 100 0 0 -75 c0
-68 2 -75 20 -75 19 0 20 7 20 170 0 163 -1 170 -20 170 -18 0 -20 -7 -20 -75
l0 -75 -100 0 -100 0 0 75 c0 73 -1 75 -25 75 l-25 0 0 -170z"/>
<path d="M1430 706 c0 -18 -6 -25 -22 -28 -13 -2 -23 -10 -23 -18 0 -8 10 -16
23 -18 21 -3 22 -8 22 -90 0 -98 12 -126 58 -137 34 -7 85 10 79 28 -2 6 -20
12 -40 12 -19 0 -39 4 -44 8 -4 5 -10 47 -12 93 l-3 84 41 0 c34 0 41 3 41 20
0 17 -7 20 -40 20 -36 0 -40 3 -40 25 0 18 -5 25 -20 25 -15 0 -20 -7 -20 -24z"/>
<path d="M850 658 c-68 -46 -77 -153 -17 -208 59 -55 161 -45 205 20 35 51 28
129 -16 172 -43 44 -121 51 -172 16z m127 -33 c28 -20 46 -75 34 -106 -14 -39
-48 -63 -88 -63 -83 0 -113 118 -44 171 22 17 72 16 98 -2z"/>
<path d="M1158 664 c-62 -33 -80 -147 -32 -203 53 -64 155 -64 208 0 48 57 30
171 -34 204 -37 19 -107 19 -142 -1z m133 -53 c47 -47 31 -125 -31 -151 -57
-24 -120 26 -120 95 0 38 50 85 90 85 22 0 41 -9 61 -29z"/>
<path d="M1140 215 c0 -96 3 -115 15 -115 8 0 15 8 15 17 0 9 8 25 17 35 17
19 18 18 48 -18 19 -23 37 -35 49 -33 15 3 13 10 -18 49 l-36 45 30 26 c16 14
30 29 30 32 0 18 -37 3 -74 -30 l-41 -38 -3 73 c-2 55 -6 72 -17 72 -12 0 -15
-21 -15 -115z"/>
<path d="M550 205 l0 -105 71 0 c89 0 109 10 109 55 0 18 -4 36 -9 39 -5 3 -7
24 -4 46 8 60 -6 70 -93 70 l-74 0 0 -105z"/>
<path d="M779 241 c-30 -24 -33 -89 -5 -120 26 -29 98 -29 126 -1 27 27 27 93
0 120 -26 26 -89 27 -121 1z"/>
<path d="M961 234 c-12 -15 -21 -39 -21 -54 0 -15 9 -39 21 -54 16 -21 29 -26
63 -26 76 0 112 74 65 134 -16 21 -29 26 -64 26 -35 0 -48 -5 -64 -26z"/>
</g>
</svg>
